<svg xmlns="http://www.w3.org/2000/svg" xmlns:xlink="http://www.w3.org/1999/xlink" width="229" zoomAndPan="magnify" viewBox="0 0 171.75 30.000001" height="40" preserveAspectRatio="xMidYMid meet" version="1.0"><defs><g/></defs><g fill="#ffffff" fill-opacity="1"><g transform="translate(9.382459, 21.581093)"><g><path d="M 0.125 -1.125 C 0.75 -1.125 1.207031 -1.179688 1.5 -1.296875 C 1.800781 -1.410156 2.003906 -1.625 2.109375 -1.9375 C 2.222656 -2.25 2.28125 -2.726562 2.28125 -3.375 L 2.28125 -14.75 L 4.3125 -14.75 L 4.3125 -3.328125 C 4.3125 -2.441406 4.21875 -1.734375 4.03125 -1.203125 C 3.851562 -0.679688 3.53125 -0.289062 3.0625 -0.03125 C 2.601562 0.21875 1.953125 0.34375 1.109375 0.34375 L 0.125 0.34375 Z M 0.125 -1.125 "/></g></g></g><g fill="#ffffff" fill-opacity="1"><g transform="translate(14.866025, 21.581093)"><g><path d="M 1.140625 -14.75 L 4.359375 -14.75 C 5.941406 -14.75 7.066406 -14.382812 7.734375 -13.65625 C 8.398438 -12.9375 8.734375 -11.800781 8.734375 -10.25 L 8.734375 -4.828125 C 8.734375 -3.203125 8.40625 -1.988281 7.75 -1.1875 C 7.101562 -0.394531 6.023438 0 4.515625 0 L 1.140625 0 Z M 4.375 -1.46875 C 5.09375 -1.46875 5.609375 -1.609375 5.921875 -1.890625 C 6.242188 -2.171875 6.445312 -2.550781 6.53125 -3.03125 C 6.613281 -3.507812 6.65625 -4.234375 6.65625 -5.203125 L 6.65625 -10 C 6.65625 -10.84375 6.601562 -11.484375 6.5 -11.921875 C 6.394531 -12.367188 6.175781 -12.695312 5.84375 -12.90625 C 5.519531 -13.125 5.007812 -13.234375 4.3125 -13.234375 L 3.203125 -13.234375 L 3.203125 -1.46875 Z M 4.375 -1.46875 "/></g></g></g><g fill="#ffffff" fill-opacity="1"><g transform="translate(24.466824, 21.581093)"><g/></g></g><g fill="#ffffff" fill-opacity="1"><g transform="translate(28.638707, 21.581093)"><g><path d="M 0.65625 -14.75 L 2.375 -14.75 L 3.953125 -4.15625 L 5.9375 -14.703125 L 7.390625 -14.703125 L 9.40625 -4.09375 L 10.953125 -14.75 L 12.625 -14.75 L 10.25 0 L 8.765625 0 L 6.703125 -10.9375 L 4.625 0 L 3.0625 0 Z M 0.65625 -14.75 "/></g></g></g><g fill="#ffffff" fill-opacity="1"><g transform="translate(41.919507, 21.581093)"><g><path d="M 1.25 -14.75 L 3.28125 -14.75 L 3.28125 0 L 1.25 0 Z M 1.25 -14.75 "/></g></g></g><g fill="#ffffff" fill-opacity="1"><g transform="translate(46.43753, 21.581093)"><g><path d="M 1.140625 -14.75 L 3.203125 -14.75 L 3.203125 -1.46875 L 6.984375 -1.46875 L 6.984375 0 L 1.140625 0 Z M 1.140625 -14.75 "/></g></g></g><g fill="#ffffff" fill-opacity="1"><g transform="translate(53.670011, 21.581093)"><g><path d="M 1.140625 -14.75 L 3.203125 -14.75 L 3.203125 -1.46875 L 6.984375 -1.46875 L 6.984375 0 L 1.140625 0 Z M 1.140625 -14.75 "/></g></g></g><g fill="#ffffff" fill-opacity="1"><g transform="translate(60.902492, 21.581093)"><g><path d="M 4.625 0.15625 C 3.382812 0.15625 2.4375 -0.222656 1.78125 -0.984375 C 1.132812 -1.742188 0.773438 -2.796875 0.703125 -4.140625 L 2.53125 -4.625 C 2.59375 -3.675781 2.773438 -2.910156 3.078125 -2.328125 C 3.390625 -1.742188 3.90625 -1.453125 4.625 -1.453125 C 5.15625 -1.453125 5.554688 -1.597656 5.828125 -1.890625 C 6.109375 -2.191406 6.25 -2.625 6.25 -3.1875 C 6.25 -3.789062 6.117188 -4.289062 5.859375 -4.6875 C 5.609375 -5.09375 5.203125 -5.539062 4.640625 -6.03125 L 2.171875 -8.21875 C 1.671875 -8.65625 1.304688 -9.125 1.078125 -9.625 C 0.859375 -10.132812 0.75 -10.753906 0.75 -11.484375 C 0.75 -12.554688 1.054688 -13.390625 1.671875 -13.984375 C 2.296875 -14.585938 3.140625 -14.890625 4.203125 -14.890625 C 5.367188 -14.890625 6.25 -14.578125 6.84375 -13.953125 C 7.445312 -13.335938 7.804688 -12.378906 7.921875 -11.078125 L 6.171875 -10.609375 C 6.109375 -11.460938 5.941406 -12.125 5.671875 -12.59375 C 5.398438 -13.0625 4.910156 -13.296875 4.203125 -13.296875 C 3.679688 -13.296875 3.28125 -13.160156 3 -12.890625 C 2.726562 -12.617188 2.59375 -12.210938 2.59375 -11.671875 C 2.59375 -11.234375 2.664062 -10.863281 2.8125 -10.5625 C 2.957031 -10.269531 3.203125 -9.972656 3.546875 -9.671875 L 6.046875 -7.484375 C 6.691406 -6.910156 7.203125 -6.289062 7.578125 -5.625 C 7.960938 -4.957031 8.15625 -4.203125 8.15625 -3.359375 C 8.15625 -2.273438 7.828125 -1.414062 7.171875 -0.78125 C 6.515625 -0.15625 5.664062 0.15625 4.625 0.15625 Z M 4.625 0.15625 "/></g></g></g><g fill="#ffffff" fill-opacity="1"><g transform="translate(69.519527, 21.581093)"><g/></g></g><g fill="#ffffff" fill-opacity="1"><g transform="translate(73.69141, 21.581093)"><g><path d="M 3.484375 -14.75 L 5.46875 -14.75 L 8.625 0 L 6.671875 0 L 6 -3.71875 L 2.984375 -3.71875 L 2.28125 0 L 0.34375 0 Z M 5.71875 -5.1875 L 4.484375 -11.84375 L 3.265625 -5.1875 Z M 5.71875 -5.1875 "/></g></g></g><g fill="#ffffff" fill-opacity="1"><g transform="translate(82.654585, 21.581093)"><g><path d="M 1.140625 -14.75 L 2.546875 -14.75 L 6.734375 -4.953125 L 6.734375 -14.75 L 8.453125 -14.75 L 8.453125 0 L 7.140625 0 L 2.890625 -10.078125 L 2.890625 0 L 1.140625 0 Z M 1.140625 -14.75 "/></g></g></g><g fill="#ffffff" fill-opacity="1"><g transform="translate(92.273599, 21.581093)"><g><path d="M 1.140625 -14.75 L 4.359375 -14.75 C 5.941406 -14.75 7.066406 -14.382812 7.734375 -13.65625 C 8.398438 -12.9375 8.734375 -11.800781 8.734375 -10.25 L 8.734375 -4.828125 C 8.734375 -3.203125 8.40625 -1.988281 7.75 -1.1875 C 7.101562 -0.394531 6.023438 0 4.515625 0 L 1.140625 0 Z M 4.375 -1.46875 C 5.09375 -1.46875 5.609375 -1.609375 5.921875 -1.890625 C 6.242188 -2.171875 6.445312 -2.550781 6.53125 -3.03125 C 6.613281 -3.507812 6.65625 -4.234375 6.65625 -5.203125 L 6.65625 -10 C 6.65625 -10.84375 6.601562 -11.484375 6.5 -11.921875 C 6.394531 -12.367188 6.175781 -12.695312 5.84375 -12.90625 C 5.519531 -13.125 5.007812 -13.234375 4.3125 -13.234375 L 3.203125 -13.234375 L 3.203125 -1.46875 Z M 4.375 -1.46875 "/></g></g></g><g fill="#ffffff" fill-opacity="1"><g transform="translate(101.874398, 21.581093)"><g/></g></g><g fill="#ffffff" fill-opacity="1"><g transform="translate(106.046281, 21.581093)"><g><path d="M 1.140625 -14.75 L 6.875 -14.75 L 6.875 -13.234375 L 3.203125 -13.234375 L 3.203125 -8.34375 L 6.171875 -8.34375 L 6.171875 -6.890625 L 3.203125 -6.890625 L 3.203125 -1.46875 L 6.90625 -1.46875 L 6.90625 0 L 1.140625 0 Z M 1.140625 -14.75 "/></g></g></g><g fill="#ffffff" fill-opacity="1"><g transform="translate(113.46094, 21.581093)"><g><path d="M 4.625 0.15625 C 3.382812 0.15625 2.4375 -0.222656 1.78125 -0.984375 C 1.132812 -1.742188 0.773438 -2.796875 0.703125 -4.140625 L 2.53125 -4.625 C 2.59375 -3.675781 2.773438 -2.910156 3.078125 -2.328125 C 3.390625 -1.742188 3.90625 -1.453125 4.625 -1.453125 C 5.15625 -1.453125 5.554688 -1.597656 5.828125 -1.890625 C 6.109375 -2.191406 6.25 -2.625 6.25 -3.1875 C 6.25 -3.789062 6.117188 -4.289062 5.859375 -4.6875 C 5.609375 -5.09375 5.203125 -5.539062 4.640625 -6.03125 L 2.171875 -8.21875 C 1.671875 -8.65625 1.304688 -9.125 1.078125 -9.625 C 0.859375 -10.132812 0.75 -10.753906 0.75 -11.484375 C 0.75 -12.554688 1.054688 -13.390625 1.671875 -13.984375 C 2.296875 -14.585938 3.140625 -14.890625 4.203125 -14.890625 C 5.367188 -14.890625 6.25 -14.578125 6.84375 -13.953125 C 7.445312 -13.335938 7.804688 -12.378906 7.921875 -11.078125 L 6.171875 -10.609375 C 6.109375 -11.460938 5.941406 -12.125 5.671875 -12.59375 C 5.398438 -13.0625 4.910156 -13.296875 4.203125 -13.296875 C 3.679688 -13.296875 3.28125 -13.160156 3 -12.890625 C 2.726562 -12.617188 2.59375 -12.210938 2.59375 -11.671875 C 2.59375 -11.234375 2.664062 -10.863281 2.8125 -10.5625 C 2.957031 -10.269531 3.203125 -9.972656 3.546875 -9.671875 L 6.046875 -7.484375 C 6.691406 -6.910156 7.203125 -6.289062 7.578125 -5.625 C 7.960938 -4.957031 8.15625 -4.203125 8.15625 -3.359375 C 8.15625 -2.273438 7.828125 -1.414062 7.171875 -0.78125 C 6.515625 -0.15625 5.664062 0.15625 4.625 0.15625 Z M 4.625 0.15625 "/></g></g></g><g fill="#ffffff" fill-opacity="1"><g transform="translate(122.077968, 21.581093)"><g><path d="M 2.765625 -13.234375 L 0.265625 -13.234375 L 0.265625 -14.75 L 7.25 -14.75 L 7.25 -13.234375 L 4.828125 -13.234375 L 4.828125 0 L 2.765625 0 Z M 2.765625 -13.234375 "/></g></g></g><g fill="#ffffff" fill-opacity="1"><g transform="translate(129.601933, 21.581093)"><g><path d="M 3.484375 -14.75 L 5.46875 -14.75 L 8.625 0 L 6.671875 0 L 6 -3.71875 L 2.984375 -3.71875 L 2.28125 0 L 0.34375 0 Z M 5.71875 -5.1875 L 4.484375 -11.84375 L 3.265625 -5.1875 Z M 5.71875 -5.1875 "/></g></g></g><g fill="#ffffff" fill-opacity="1"><g transform="translate(138.565108, 21.581093)"><g><path d="M 2.765625 -13.234375 L 0.265625 -13.234375 L 0.265625 -14.75 L 7.25 -14.75 L 7.25 -13.234375 L 4.828125 -13.234375 L 4.828125 0 L 2.765625 0 Z M 2.765625 -13.234375 "/></g></g></g><g fill="#ffffff" fill-opacity="1"><g transform="translate(146.089073, 21.581093)"><g><path d="M 1.140625 -14.75 L 6.875 -14.75 L 6.875 -13.234375 L 3.203125 -13.234375 L 3.203125 -8.34375 L 6.171875 -8.34375 L 6.171875 -6.890625 L 3.203125 -6.890625 L 3.203125 -1.46875 L 6.90625 -1.46875 L 6.90625 0 L 1.140625 0 Z M 1.140625 -14.75 "/></g></g></g><g fill="#ffffff" fill-opacity="1"><g transform="translate(153.503725, 21.581093)"><g><path d="M 4.625 0.15625 C 3.382812 0.15625 2.4375 -0.222656 1.78125 -0.984375 C 1.132812 -1.742188 0.773438 -2.796875 0.703125 -4.140625 L 2.53125 -4.625 C 2.59375 -3.675781 2.773438 -2.910156 3.078125 -2.328125 C 3.390625 -1.742188 3.90625 -1.453125 4.625 -1.453125 C 5.15625 -1.453125 5.554688 -1.597656 5.828125 -1.890625 C 6.109375 -2.191406 6.25 -2.625 6.25 -3.1875 C 6.25 -3.789062 6.117188 -4.289062 5.859375 -4.6875 C 5.609375 -5.09375 5.203125 -5.539062 4.640625 -6.03125 L 2.171875 -8.21875 C 1.671875 -8.65625 1.304688 -9.125 1.078125 -9.625 C 0.859375 -10.132812 0.75 -10.753906 0.75 -11.484375 C 0.75 -12.554688 1.054688 -13.390625 1.671875 -13.984375 C 2.296875 -14.585938 3.140625 -14.890625 4.203125 -14.890625 C 5.367188 -14.890625 6.25 -14.578125 6.84375 -13.953125 C 7.445312 -13.335938 7.804688 -12.378906 7.921875 -11.078125 L 6.171875 -10.609375 C 6.109375 -11.460938 5.941406 -12.125 5.671875 -12.59375 C 5.398438 -13.0625 4.910156 -13.296875 4.203125 -13.296875 C 3.679688 -13.296875 3.28125 -13.160156 3 -12.890625 C 2.726562 -12.617188 2.59375 -12.210938 2.59375 -11.671875 C 2.59375 -11.234375 2.664062 -10.863281 2.8125 -10.5625 C 2.957031 -10.269531 3.203125 -9.972656 3.546875 -9.671875 L 6.046875 -7.484375 C 6.691406 -6.910156 7.203125 -6.289062 7.578125 -5.625 C 7.960938 -4.957031 8.15625 -4.203125 8.15625 -3.359375 C 8.15625 -2.273438 7.828125 -1.414062 7.171875 -0.78125 C 6.515625 -0.15625 5.664062 0.15625 4.625 0.15625 Z M 4.625 0.15625 "/></g></g></g></svg>